<svg width="38" height="50" xmlns="http://www.w3.org/2000/svg"><g fill="none" fill-rule="evenodd"><path d="M0.000529807125,19.2307692 C0.0282651638,22.9629772 1.14533543,26.725595 3.44061282,30.0139034 L16.3471306,48.6079057 C17.6355492,50.4640868 20.365555,50.4640196 21.653883,48.6077747 L34.5639258,30.0067667 C36.8570624,26.7215334 37.9729146,22.9612713 38.0002305,19.2307692 C38.0002305,8.60990866 29.4934102,0 19,0 C8.50658975,0 0,8.60990866 0,19.2307692" fill="#FFF" fill-rule="nonzero"/><path d="M18.9984742,2 C15.510234,1.99752179 12.1250327,3.05621091 9.24530468,5.06472282 C1.55932513,10.4254309 -0.307392831,20.9706615 5.07404817,28.6260706 L18.4008525,47.690405 C18.689422,48.1032107 19.3108146,48.1031955 19.5993633,47.6903763 L32.9298445,28.6188063 C38.3066393,20.9700263 36.4388375,10.424986 28.7534959,5.06472282 C25.8737678,3.05621091 22.4885666,1.99752179 18.9984742,2 Z" fill="#0AF"/><circle fill="#FFF" cx="19" cy="19" r="8"/></g></svg>